<svg width="660" height="200" viewBox="0 0 660 200" fill="none" xmlns="http://www.w3.org/2000/svg">
<path d="M182 66.6999C182 65.6999 182.9 64.8999 183.8 64.8999H190.1C191 64.8999 191.9 65.7999 191.9 66.6999V129.8C191.9 130.7 191 131.6 190.1 131.6H183.8C182.9 131.6 182 130.7 182 129.8V66.6999Z" fill="white"/>
<path d="M206.1 95.3C206.1 94.4 207 93.5 207.9 93.5H210.7C211.5 93.5 212 94 212.2 94.6L213.3 97.8C214 97 219 92.5 226.6 92.5C238.2 92.5 242.5 100.7 242.5 110.6V129.8C242.5 130.7 241.6 131.6 240.7 131.6H235.3C234.2 131.6 233.5 130.7 233.5 129.8V110.3C233.5 104.2 230.6 100.9 225.6 100.9C219.6 100.9 215.5 105.3 215 106.6V129.8C215 131 214.4 131.6 212.8 131.6H207.8C206.9 131.6 206 130.7 206 129.8L206.1 95.3Z" fill="white"/>
<path d="M254.5 95.3C254.5 94.4 255.4 93.5 256.3 93.5H259.1C259.9 93.5 260.4 94 260.6 94.6L261.7 97.8C262.4 97 267.4 92.5 275 92.5C286.6 92.5 290.9 100.7 290.9 110.6V129.8C290.9 130.7 290 131.6 289.1 131.6H283.7C282.7 131.6 281.9 130.7 281.9 129.8V110.3C281.9 104.2 278.9 100.9 274 100.9C268 100.9 263.9 105.3 263.4 106.6V129.8C263.4 131 262.8 131.6 261.2 131.6H256.2C255.3 131.6 254.4 130.7 254.4 129.8L254.5 95.3Z" fill="white"/>
<path d="M319.2 92.5C329.1 92.5 336.7 99.9 336.7 110.1C336.7 110.8 336.6 112 336.5 112.7C336.4 113.6 335.6 114.3 334.8 114.3H308.9C309.2 119.5 313.7 124.5 319.9 124.5C323.3 124.5 326.5 123 328.4 121.7C329.5 121 330.2 120.6 331 121.6L333.7 125.2C334.4 126 334.7 126.7 333.5 127.7C330.7 130.1 325.8 132.5 319.4 132.5C307.9 132.5 300.2 123.4 300.2 112.5C300.1 101.8 307.7 92.5 319.2 92.5ZM327.9 108.3C327.6 103.7 323.8 99.8 319.1 99.8C314 99.8 310 103.5 309.4 108.3H327.9Z" fill="white"/>
<path d="M345.9 95.3C345.9 94.4 346.8 93.5 347.7 93.5H350.5C351.2 93.5 351.9 94.1 352.1 94.8L353.1 98C353.8 97.1 357.3 92.5 364.2 92.5C367.8 92.5 372.2 93.4 371.2 96L368.9 100.7C368.4 101.8 367.5 101.9 366.6 101.6C366 101.3 364.6 100.9 363.4 100.9C357.9 100.9 355.2 104.9 354.8 105.6V129.8C354.8 131.4 353.8 131.6 352.2 131.6H347.6C346.6 131.6 345.8 130.7 345.8 129.8L345.9 95.3Z" fill="white"/>
<path d="M412.9 69H394.7C393.7 69 393.5 68.4 393.5 67.6V66.2C393.5 65.4 394.1 65 394.7 65H435.7C436.5 65 436.9 65.6 436.9 66.2V67.8C436.9 68.5 436.4 69 435.7 69H417.4V130.4C417.4 131.1 416.8 131.6 415.9 131.6H414.1C413.4 131.6 412.9 131 412.9 130.4V69Z" fill="white"/>
<path d="M439 94.6999C439 93.9999 439.6 93.4999 440.2 93.4999H441.3C441.9 93.4999 442.3 93.8999 442.4 94.5999L442.8 98.4999C443.8 97.1999 447.6 92.5999 454.7 92.5999C457.7 92.5999 459.8 93.4999 460.6 93.6999C461.5 93.9999 461.9 94.5999 461.6 95.3999L460.8 97.2999C460.5 97.9999 459.9 98.0999 459.3 97.7999C458.8 97.5999 456.9 96.6999 454.3 96.6999C446.9 96.6999 443.2 102.7 443 103.3V130.5C443 131.3 442.6 131.7 441.8 131.7H439.9C439.2 131.7 438.9 131.1 438.9 130.5L439 94.6999Z" fill="white"/>
<path d="M485.6 92.5C495.6 92.5 502.8 99.8 502.8 109.9C502.8 111.4 502.8 113.6 501.4 113.6H471C471.4 121.8 477.3 128.7 485.9 128.7C490.9 128.7 494.9 126.7 497.1 125.2C498 124.6 498.3 124.5 498.8 125.2L499.8 126.5C500.1 126.9 500 127.4 499.4 128C497.5 129.9 491.5 132.5 485.6 132.5C474 132.5 466.8 123.5 466.8 112.4C466.8 101.6 473.9 92.5 485.6 92.5ZM498.6 110.3C498.6 102.9 494.1 96.4 485.5 96.4C477.1 96.4 471.5 102.5 471 110.3H498.6Z" fill="white"/>
<path d="M514.1 94.7C514.1 94 514.7 93.5 515.4 93.5H516.4C517.1 93.5 517.4 93.9 517.5 94.4L517.9 98.5C519.1 97.2 524.4 92.5 532 92.5C542.7 92.5 547.3 99.3 547.3 109.9V130.3C547.3 131 546.7 131.5 546.1 131.5H544.4C543.7 131.5 543.2 130.9 543.2 130.3V110C543.2 101.2 539.1 96.7 531.9 96.7C524.1 96.7 518.7 102.8 518.3 103.3V130.5C518.3 131.3 517.9 131.7 517.1 131.7H515.1C514.4 131.7 514.1 131.1 514.1 130.5V94.7Z" fill="white"/>
<path d="M577.3 92.4999C584.5 92.4999 589 96.2999 589 96.2999V66.0999C589 65.3999 589.5 64.8999 590.2 64.8999H591.9C592.5 64.8999 593 65.4999 593 66.0999V130.3C593 131 592.4 131.5 591.8 131.5H590.8C590 131.5 589.6 131.1 589.5 130.3L589.2 127C588.1 128.2 583.4 132.5 576 132.5C566.1 132.5 558.4 123.6 558.4 112.5C558.5 101.3 566.4 92.4999 577.3 92.4999ZM576.4 128.8C584.7 128.8 588.8 122.4 589 122V100.6C589 100.6 584.6 96.5999 577.7 96.5999C568.9 96.5999 562.7 103.5 562.7 112.5C562.7 121.4 568.4 128.8 576.4 128.8Z" fill="white"/>
<path d="M605.4 126.9L606.4 125.4C606.7 124.9 607.4 124.7 608.1 125.3C609.1 126.1 613 129 618.3 129C623.7 129 627.5 125.9 627.5 122.2C627.5 117.8 623.2 116 616.8 113.6C610 111.2 605.1 108.3 605.1 102.4C605.1 98.2 608.8 92.5 617.6 92.5C622.6 92.5 626.5 94.3 628.4 95.6C629 96 629.2 96.7 628.8 97.4L628.2 98.5C627.8 99.2 627.1 99.4 626.4 99C625.5 98.4 621.7 96.3 617.6 96.3C611.6 96.3 609.4 99.8 609.4 102.4C609.4 106.2 612.8 108 618.4 110C625.6 112.7 631.8 115.1 631.8 122C631.8 127.7 625.9 132.6 618.3 132.6C611.8 132.6 607.9 129.9 605.8 128.3C605.4 128 605.1 127.4 605.4 126.9Z" fill="white"/>
<path d="M33.3 42.2C34.8 43 36.4 44 37.8 45C57.5 59 77.1 73.1 96.8 87C100.9 89.6 103.4 93.7999 106.1 97.5999C111.9 105.3 117 113.4 123.2 120.8C129.9 110.8 131.5 97.7 127.4 86.4C122.3 71.8 107.9 61.1 92.4001 60.7C86.9001 60.4 81.5 61.6999 76.3 63.2999C71.1 59.7999 66 56.0999 60.9 52.2999C70.3 45.8999 82 43.0999 93.3 43.5999C109.6 44.0999 125.4 52.5 135.2 65.5C143 75.7 147.3 88.6 146.6 101.5C146.4 114 141.3 126.1 133.5 135.8C139.5 144.6 146 153 152.1 161.8C143.1 156.1 134.8 149.4 126 143.4C122.5 145.5 119.2 147.9 115.5 149.8C102.4 156.1 86.8 157.4 73.1 152.7C57 147.5 43.8 134.6 38.1 118.7C32.6 103.5 33.7 85.3999 42.5 71.5999C45.8 76.4999 49.4 81.1999 52.8 86.0999C54.3 88.0999 52.9 90.4999 52.7 92.5999C49.3 108.4 57.6 125.4 71.6 133.2C83.5 140.2 99.2001 140 110.9 132.6C100.8 124.7 90.0001 117.9 79.9001 109.9C84.1001 105.8 88.4001 101.7 92.4001 97.3C89.2001 93.9 85.6 90.6999 82.1 87.5999C68.1 74.8999 54.3 62.1 40.3 49.4C37.8 47.2 35.6 44.7 33.3 42.2Z" fill="white"/>
</svg>
