<?xml version="1.0" encoding="UTF-8"?>
<svg xmlns="http://www.w3.org/2000/svg" width="1440" height="536" viewBox="0 0 1440 536" fill="none">
  <g opacity="0.2" clip-path="url(#clip0_93_2005)">
    <g opacity="0.2">
      <path d="M1295.74 160.483H1176.81L1117.34 57.52H1236.27L1295.74 160.483Z" stroke="#1D1D1D" stroke-linejoin="round"></path>
      <path d="M1295.74 160.483H1176.81L1117.34 263.445H1236.27L1295.74 160.483Z" stroke="#1D1D1D" stroke-linejoin="round"></path>
      <path d="M1141.6 99.5249H1212.02L1247.21 160.483L1212.02 221.424H1141.6L1106.41 160.483L1141.6 99.5249Z" fill="#F3CA07"></path>
      <path d="M1117.34 57.52H1236.27L1295.74 160.483L1236.27 263.445H1117.34L1057.89 160.483L1117.34 57.52Z" stroke="#1D1D1D" stroke-linejoin="round"></path>
      <path d="M1236.27 57.52L1176.81 160.483L1236.27 263.445L1295.74 160.483L1236.27 57.52Z" stroke="#1D1D1D" stroke-linejoin="round"></path>
      <path d="M1176.81 160.483H1057.89L1117.34 263.445H1236.27L1176.81 160.483Z" stroke="#1D1D1D" stroke-linecap="round" stroke-linejoin="round"></path>
      <path d="M1313.07 490.39C1326.5 503.814 1335.64 520.917 1339.34 539.536C1343.05 558.155 1341.15 577.453 1333.88 594.991C1326.61 612.529 1314.3 627.519 1298.51 638.065C1282.72 648.611 1264.16 654.24 1245.17 654.24C1226.18 654.24 1207.62 648.611 1191.83 638.065C1176.04 627.519 1163.73 612.529 1156.46 594.991C1149.2 577.453 1147.29 558.155 1151 539.536C1154.7 520.917 1163.84 503.814 1177.27 490.39C1195.29 472.415 1219.71 462.32 1245.17 462.32C1270.63 462.32 1295.05 472.415 1313.07 490.39ZM1314.21 489.238C1300.55 475.587 1283.15 466.29 1264.21 462.524C1245.27 458.757 1225.64 460.69 1207.79 468.078C1189.95 475.466 1174.7 487.977 1163.97 504.029C1153.24 520.081 1147.52 538.953 1147.52 558.258C1147.52 577.564 1153.24 596.436 1163.97 612.488C1174.7 628.54 1189.95 641.051 1207.79 648.439C1225.64 655.827 1245.27 657.759 1264.21 653.993C1283.15 650.226 1300.55 640.93 1314.21 627.278C1323.27 618.216 1330.47 607.456 1335.38 595.613C1340.28 583.77 1342.81 571.077 1342.81 558.258C1342.81 545.44 1340.28 532.746 1335.38 520.904C1330.47 509.061 1323.27 498.301 1314.21 489.238Z" fill="#3D3D3D"></path>
      <path d="M1294.92 508.529C1304.76 518.365 1311.46 530.896 1314.17 544.536C1316.88 558.177 1315.49 572.316 1310.16 585.164C1304.84 598.012 1295.82 608.994 1284.25 616.72C1272.68 624.446 1259.08 628.57 1245.17 628.57C1231.26 628.57 1217.66 624.446 1206.09 616.72C1194.52 608.994 1185.5 598.012 1180.18 585.164C1174.85 572.316 1173.46 558.177 1176.17 544.536C1178.88 530.896 1185.58 518.365 1195.42 508.529C1208.61 495.339 1226.51 487.928 1245.17 487.928C1263.83 487.928 1281.73 495.339 1294.92 508.529ZM1296.18 507.259C1286.09 497.173 1273.23 490.305 1259.24 487.523C1245.24 484.741 1230.74 486.169 1217.56 491.628C1204.37 497.087 1193.11 506.331 1185.18 518.19C1177.25 530.05 1173.02 543.994 1173.02 558.257C1173.02 572.521 1177.25 586.464 1185.18 598.324C1193.11 610.184 1204.37 619.428 1217.56 624.886C1230.74 630.345 1245.24 631.774 1259.24 628.992C1273.23 626.209 1286.09 619.341 1296.18 609.256C1309.68 595.717 1317.27 577.377 1317.27 558.257C1317.27 539.137 1309.68 520.797 1296.18 507.259Z" fill="#3D3D3D"></path>
      <path d="M1292.37 511.069C1304.88 523.583 1311.91 540.553 1311.91 558.248C1311.91 575.943 1304.88 592.913 1292.37 605.427L1317.12 630.173C1326.57 620.726 1334.06 609.512 1339.17 597.171C1344.29 584.829 1346.92 571.602 1346.91 558.245C1346.91 544.887 1344.28 531.66 1339.16 519.32C1334.05 506.98 1326.55 495.767 1317.1 486.323C1307.65 476.879 1296.44 469.388 1284.09 464.278C1271.74 459.167 1258.51 456.538 1245.15 456.54C1231.79 456.541 1218.56 459.174 1206.21 464.287C1193.87 469.4 1182.65 476.894 1173.2 486.34L1197.96 511.069C1210.48 498.554 1227.46 491.523 1245.16 491.523C1262.87 491.523 1279.85 498.554 1292.37 511.069Z" fill="#323232"></path>
      <path d="M625.817 193.459C606.823 193.459 588.256 187.828 572.465 177.278C556.674 166.728 544.367 151.734 537.101 134.191C529.836 116.648 527.939 97.3453 531.649 78.7243C535.359 60.1034 544.511 43.0007 557.946 29.5798C571.381 16.1588 588.496 7.02252 607.126 3.32659C625.756 -0.369329 645.064 1.54115 662.608 8.81637C680.152 16.0916 695.143 28.4047 705.685 44.1982C716.228 59.9916 721.847 78.5559 721.834 97.5426C721.807 122.991 711.682 147.389 693.681 165.384C675.68 183.379 651.274 193.5 625.817 193.527V193.459ZM625.817 195.221C645.126 195.221 664.002 189.498 680.058 178.775C696.114 168.053 708.629 152.812 716.021 134.98C723.414 117.148 725.351 97.5252 721.589 78.5925C717.827 59.6598 708.534 42.2672 694.885 28.6134C681.236 14.9597 663.844 5.65783 644.907 1.88387C625.971 -1.8901 606.34 0.0332521 588.497 7.41076C570.653 14.7883 555.399 27.2887 544.661 43.3317C533.924 59.3747 528.186 78.24 528.172 97.5426C528.172 123.431 538.46 148.258 556.772 166.564C575.084 184.869 599.92 195.153 625.817 195.153V195.221Z" fill="#3D3D3D"></path>
      <path d="M625.817 167.8C611.896 167.803 598.286 163.678 586.711 155.948C575.135 148.217 566.114 137.227 560.788 124.369C555.462 111.511 554.071 97.3633 556.791 83.715C559.511 70.0668 566.22 57.5318 576.068 47.6961C585.917 37.8604 598.463 31.166 612.118 28.4601C625.774 25.7542 639.926 27.1583 652.783 32.4947C665.64 37.8312 676.624 46.8601 684.347 58.4392C692.069 70.0182 696.182 83.6269 696.166 97.5434C696.166 116.195 688.754 134.082 675.561 147.27C662.368 160.458 644.475 167.868 625.817 167.868V167.8ZM625.817 169.663C640.086 169.663 654.034 165.433 665.898 157.509C677.762 149.584 687.009 138.32 692.47 125.142C697.93 111.964 699.359 97.4634 696.575 83.4736C693.792 69.4838 686.921 56.6333 676.831 46.5472C666.741 36.4611 653.886 29.5924 639.892 26.8096C625.897 24.0269 611.391 25.4551 598.209 30.9136C585.026 36.3722 573.758 45.6159 565.831 57.4759C557.904 69.3359 553.673 83.2795 553.673 97.5434C553.695 116.664 561.303 134.995 574.828 148.515C588.353 162.035 606.69 169.641 625.817 169.663Z" fill="#3D3D3D"></path>
      <path d="M625.818 164.191C608.126 164.195 591.156 157.177 578.639 144.68C566.121 132.182 559.079 115.228 559.061 97.542H524.073C524.073 124.521 534.794 150.396 553.878 169.473C572.962 188.551 598.846 199.268 625.835 199.268C652.823 199.268 678.707 188.551 697.791 169.473C716.875 150.396 727.596 124.521 727.596 97.542H692.557C692.544 115.226 685.506 132.181 672.991 144.679C660.476 157.177 643.508 164.195 625.818 164.191Z" fill="#323232"></path>
      <path d="M272.482 485.867C272.482 504.851 266.851 523.408 256.3 539.193C245.749 554.977 230.754 567.28 213.209 574.545C195.664 581.81 176.358 583.71 157.732 580.007C139.107 576.303 121.998 567.162 108.57 553.738C95.1414 540.314 85.9966 523.211 82.2918 504.592C78.5869 485.973 80.4884 466.674 87.7557 449.135C95.0231 431.596 107.33 416.606 123.12 406.059C138.91 395.512 157.474 389.882 176.464 389.882C201.922 389.909 226.328 400.031 244.329 418.025C262.33 436.02 272.455 460.418 272.482 485.867ZM274.176 485.867C274.176 466.564 268.451 447.695 257.725 431.644C246.999 415.594 231.753 403.083 213.915 395.693C196.076 388.303 176.447 386.366 157.508 390.127C138.568 393.888 121.17 403.178 107.511 416.822C93.8528 430.466 84.5478 447.852 80.7725 466.782C76.9972 485.712 78.9213 505.337 86.3013 523.174C93.6814 541.011 106.186 556.26 122.235 566.994C138.283 577.728 157.155 583.464 176.464 583.477C202.361 583.477 227.197 573.193 245.509 554.888C263.821 536.582 274.108 511.755 274.108 485.867H274.176Z" fill="#3D3D3D"></path>
      <path d="M246.83 485.867C246.833 499.78 242.709 513.381 234.98 524.951C227.25 536.521 216.261 545.539 203.404 550.866C190.547 556.192 176.398 557.588 162.747 554.876C149.097 552.163 136.557 545.465 126.715 535.629C116.872 525.792 110.169 513.258 107.452 499.613C104.736 485.968 106.129 471.824 111.454 458.97C116.779 446.115 125.798 435.129 137.37 427.399C148.942 419.669 162.547 415.543 176.465 415.543C195.124 415.543 213.019 422.952 226.215 436.139C239.41 449.327 246.826 467.214 246.83 485.867ZM248.524 485.867C248.524 471.603 244.293 457.66 236.366 445.8C228.439 433.94 217.171 424.696 203.988 419.237C190.806 413.779 176.3 412.351 162.305 415.133C148.311 417.916 135.456 424.785 125.366 434.871C115.276 444.957 108.405 457.807 105.622 471.797C102.838 485.787 104.267 500.288 109.727 513.466C115.188 526.644 124.434 537.908 136.299 545.832C148.163 553.757 162.111 557.987 176.38 557.987C195.522 557.987 213.881 550.391 227.424 536.868C240.967 523.346 248.587 505.002 248.609 485.867H248.524Z" fill="#3D3D3D"></path>
      <path d="M243.221 485.867C243.221 503.566 236.187 520.54 223.668 533.055C211.149 545.57 194.169 552.601 176.464 552.601V587.577C203.448 587.577 229.327 576.861 248.408 557.787C267.489 538.712 278.209 512.842 278.209 485.867C278.209 458.892 267.489 433.022 248.408 413.948C229.327 394.874 203.448 384.158 176.464 384.158V419.151C194.166 419.151 211.143 426.179 223.662 438.691C236.181 451.202 243.216 468.172 243.221 485.867Z" fill="#323232"></path>
      <path d="M542.643 250.404L504.469 235.466L466.296 250.404L428.123 235.466L410.671 242.291L407.384 233.89L428.123 225.777L466.296 240.716L504.469 225.777L542.643 240.716L580.816 225.777L601.537 233.89L598.25 242.291L580.816 235.466L542.643 250.404Z" fill="#3D3D3D"></path>
      <path d="M542.643 275.029L504.469 260.091L466.296 275.029L428.123 260.091L410.671 266.916L407.384 258.515L428.123 250.402L466.296 265.341L504.469 250.402L542.643 265.341L580.816 250.402L601.537 258.515L598.25 266.916L580.816 260.091L542.643 275.029Z" fill="#3D3D3D"></path>
      <path d="M1359.11 352.993L1320.93 338.054L1282.76 352.993L1244.59 338.054L1227.13 344.88L1223.85 336.462L1244.59 328.366L1282.76 343.288L1320.93 328.366L1359.11 343.288L1397.28 328.366L1418 336.462L1414.71 344.88L1397.28 338.054L1359.11 352.993Z" fill="#3D3D3D"></path>
      <path d="M1359.11 377.62L1320.93 362.681L1282.76 377.62L1244.59 362.681L1227.13 369.507L1223.85 361.106L1244.59 352.993L1282.76 367.932L1320.93 352.993L1359.11 367.932L1397.28 352.993L1418 361.106L1414.71 369.507L1397.28 362.681L1359.11 377.62Z" fill="#3D3D3D"></path>
      <path d="M338.561 593.232C338.39 593.232 338.226 593.165 338.103 593.046L297.083 552.023C297.024 551.966 296.977 551.898 296.945 551.822C296.913 551.747 296.897 551.665 296.897 551.583C296.898 551.412 296.965 551.248 297.083 551.126L338.103 510.12C338.225 510.007 338.386 509.944 338.552 509.944C338.719 509.944 338.879 510.007 339.001 510.12L380.021 551.126C380.083 551.184 380.132 551.255 380.164 551.334C380.196 551.413 380.211 551.498 380.207 551.583C380.211 551.666 380.196 551.748 380.163 551.824C380.131 551.9 380.082 551.968 380.021 552.023L345.982 586.068C345.923 586.128 345.854 586.175 345.776 586.208C345.699 586.24 345.616 586.257 345.533 586.257C345.449 586.257 345.366 586.24 345.289 586.208C345.212 586.175 345.142 586.128 345.084 586.068L311.045 552.023C310.985 551.965 310.937 551.895 310.905 551.818C310.872 551.741 310.855 551.658 310.855 551.575C310.855 551.491 310.872 551.408 310.905 551.331C310.937 551.254 310.985 551.184 311.045 551.126L338.154 524.026C338.276 523.913 338.436 523.85 338.603 523.85C338.769 523.85 338.93 523.913 339.052 524.026L366.161 551.126C366.274 551.248 366.337 551.408 366.337 551.575C366.337 551.741 366.274 551.901 366.161 552.023L345.829 572.348C345.707 572.461 345.547 572.524 345.38 572.524C345.214 572.524 345.053 572.461 344.931 572.348L338.154 565.573L324.718 552.125C324.658 552.067 324.61 551.997 324.578 551.92C324.545 551.843 324.529 551.76 324.529 551.676C324.529 551.593 324.545 551.51 324.578 551.433C324.61 551.356 324.658 551.286 324.718 551.227L338.154 537.796C338.276 537.683 338.436 537.62 338.603 537.62C338.769 537.62 338.93 537.683 339.052 537.796L352.505 551.227C352.618 551.349 352.681 551.51 352.681 551.676C352.681 551.843 352.618 552.003 352.505 552.125L339.459 565.014L345.372 570.926L364.721 551.583L338.561 525.415L312.383 551.583L345.541 584.713L378.682 551.583L338.561 511.475L298.422 551.583L339.086 592.148C339.146 592.207 339.193 592.276 339.226 592.353C339.258 592.431 339.275 592.513 339.275 592.597C339.275 592.681 339.258 592.763 339.226 592.841C339.193 592.918 339.146 592.987 339.086 593.046C339.018 593.114 338.935 593.167 338.844 593.199C338.754 593.231 338.657 593.242 338.561 593.232ZM326.04 551.583L338.594 564.117L351.132 551.583L338.594 539.032L326.04 551.583Z" fill="#1D1D1D"></path>
      <path d="M965.292 269.086C965.121 269.083 964.958 269.017 964.834 268.899L923.815 227.962C923.756 227.905 923.709 227.836 923.676 227.76C923.644 227.685 923.628 227.603 923.628 227.521C923.629 227.35 923.696 227.187 923.815 227.064L964.8 185.974C964.923 185.861 965.083 185.798 965.249 185.798C965.416 185.798 965.576 185.861 965.698 185.974L1006.74 226.979C1006.85 227.102 1006.92 227.266 1006.92 227.437C1006.92 227.519 1006.91 227.6 1006.87 227.676C1006.84 227.751 1006.79 227.82 1006.74 227.877L972.679 261.921C972.557 262.034 972.397 262.097 972.23 262.097C972.064 262.097 971.903 262.034 971.781 261.921L937.776 227.962C937.716 227.903 937.668 227.833 937.636 227.756C937.603 227.679 937.586 227.596 937.586 227.513C937.586 227.429 937.603 227.346 937.636 227.269C937.668 227.192 937.716 227.122 937.776 227.064L964.885 199.964C965.007 199.851 965.168 199.788 965.334 199.788C965.501 199.788 965.661 199.851 965.783 199.964L992.892 227.064C993.006 227.186 993.068 227.346 993.068 227.513C993.068 227.679 993.006 227.84 992.892 227.962L972.56 248.287C972.438 248.4 972.278 248.462 972.111 248.462C971.945 248.462 971.785 248.4 971.662 248.287L964.885 241.512L951.398 227.962C951.338 227.903 951.291 227.833 951.258 227.756C951.226 227.679 951.209 227.596 951.209 227.513C951.209 227.429 951.226 227.346 951.258 227.269C951.291 227.192 951.338 227.122 951.398 227.064L964.8 213.548C964.923 213.435 965.083 213.372 965.249 213.372C965.416 213.372 965.576 213.435 965.698 213.548L979.151 226.979C979.211 227.038 979.259 227.107 979.291 227.185C979.324 227.262 979.341 227.344 979.341 227.428C979.341 227.512 979.324 227.595 979.291 227.672C979.259 227.749 979.211 227.819 979.151 227.877L966.156 240.868L972.069 246.779L991.418 227.437L965.292 201.268L939.114 227.437L972.272 260.566L1005.46 227.437L965.292 187.312L925.17 227.437L965.732 268.086C965.792 268.145 965.84 268.215 965.872 268.292C965.905 268.369 965.922 268.452 965.922 268.535C965.922 268.619 965.905 268.702 965.872 268.779C965.84 268.856 965.792 268.926 965.732 268.984C965.604 269.073 965.446 269.109 965.292 269.086ZM952.737 227.437L965.292 239.97L977.83 227.437L965.292 214.886L952.737 227.437Z" fill="#1D1D1D"></path>
      <path d="M276.412 130.436C276.242 130.433 276.079 130.367 275.955 130.249L234.935 89.244C234.817 89.121 234.751 88.9571 234.751 88.7867C234.751 88.6162 234.817 88.4524 234.935 88.3294L275.955 47.3239C276.077 47.2108 276.237 47.1479 276.404 47.1479C276.57 47.1479 276.731 47.2108 276.853 47.3239L317.89 88.3294C318.008 88.4524 318.074 88.6162 318.074 88.7867C318.074 88.9571 318.008 89.121 317.89 89.244L283.834 123.271C283.775 123.331 283.705 123.379 283.628 123.411C283.551 123.444 283.468 123.461 283.385 123.461C283.301 123.461 283.218 123.444 283.141 123.411C283.064 123.379 282.994 123.331 282.936 123.271L248.897 89.244C248.836 89.1841 248.788 89.1129 248.755 89.0344C248.723 88.9559 248.706 88.8717 248.706 88.7867C248.706 88.7016 248.723 88.6174 248.755 88.5389C248.788 88.4604 248.836 88.3892 248.897 88.3294L276.006 61.2295C276.128 61.1164 276.288 61.0536 276.455 61.0536C276.621 61.0536 276.782 61.1164 276.904 61.2295L304.013 88.3294C304.127 88.4543 304.191 88.6174 304.191 88.7867C304.191 88.956 304.127 89.1191 304.013 89.244L283.681 109.569C283.559 109.682 283.399 109.745 283.232 109.745C283.066 109.745 282.905 109.682 282.783 109.569L276.006 102.794L262.519 89.244C262.459 89.1841 262.411 89.1129 262.378 89.0344C262.345 88.9559 262.328 88.8717 262.328 88.7867C262.328 88.7016 262.345 88.6174 262.378 88.5389C262.411 88.4604 262.459 88.3892 262.519 88.3294L275.955 74.898C276.077 74.7849 276.237 74.7221 276.404 74.7221C276.57 74.7221 276.731 74.7849 276.853 74.898L290.306 88.3294C290.42 88.4543 290.484 88.6174 290.484 88.7867C290.484 88.956 290.42 89.1191 290.306 89.244L277.31 102.235L283.224 108.129L302.573 88.7867L276.412 62.6353L250.235 88.7867L283.393 121.916L316.534 88.7867L276.412 48.6789L236.24 88.7867L276.904 129.436C276.964 129.495 277.011 129.565 277.044 129.642C277.076 129.719 277.093 129.802 277.093 129.885C277.093 129.969 277.076 130.052 277.044 130.129C277.011 130.206 276.964 130.276 276.904 130.334C276.833 130.383 276.753 130.417 276.668 130.435C276.584 130.452 276.497 130.453 276.412 130.436ZM263.857 88.7867L276.412 101.337L288.95 88.7867L276.412 76.236L263.857 88.7867Z" fill="#1D1D1D"></path>
      <path d="M1338.38 424.537L1331.39 420.489L1324.39 424.537V432.616L1331.39 436.664L1338.38 432.616V424.537Z" fill="#F3CA07"></path>
      <path d="M1372.24 424.537L1365.24 420.489L1358.22 424.537V432.616L1365.24 436.664L1372.24 432.616V424.537Z" fill="#F3CA07"></path>
      <path d="M1406.07 424.537L1399.07 420.489L1392.08 424.537V432.616L1399.07 436.664L1406.07 432.616V424.537Z" fill="#F3CA07"></path>
      <path d="M1366.7 438.374V446.453L1373.69 450.501L1380.69 446.453V438.374L1373.69 434.326L1366.7 438.374Z" fill="#F3CA07"></path>
      <path d="M1383.62 438.374V446.453L1390.62 450.501L1397.62 446.453V438.374L1390.62 434.326L1383.62 438.374Z" fill="#F3CA07"></path>
      <path d="M1400.53 438.374V446.453L1407.55 450.501L1414.54 446.453V438.374L1407.55 434.326L1400.53 438.374Z" fill="#F3CA07"></path>
      <path d="M175.465 206.366L182.462 210.397L189.46 206.366V198.27L182.462 194.239L175.465 198.27V206.366Z" fill="#F3CA07"></path>
      <path d="M141.612 206.366L148.627 210.397L155.624 206.366V198.27L148.627 194.239L141.612 198.27V206.366Z" fill="#F3CA07"></path>
      <path d="M107.776 206.366L114.774 210.397L121.771 206.366V198.27L114.774 194.239L107.776 198.27V206.366Z" fill="#F3CA07"></path>
      <path d="M147.153 192.528V184.449L140.155 180.401L133.158 184.449V192.528L140.155 196.559L147.153 192.528Z" fill="#F3CA07"></path>
      <path d="M130.243 192.528V184.449L123.228 180.401L116.231 184.449V192.528L123.228 196.559L130.243 192.528Z" fill="#F3CA07"></path>
      <path d="M113.316 192.528V184.449L106.319 180.401L99.3043 184.449V192.528L106.319 196.559L113.316 192.528Z" fill="#F3CA07"></path>
      <path d="M276.396 289.868L269.399 285.836L262.401 289.868V297.947L269.399 301.995L276.396 297.947V289.868Z" fill="#F3CA07"></path>
      <path d="M293.322 289.868L286.324 285.836L279.327 289.868V297.947L286.324 301.995L293.322 297.947V289.868Z" fill="#F3CA07"></path>
      <path d="M310.249 289.868L303.251 285.836L296.237 289.868V297.947L303.251 301.995L310.249 297.947V289.868Z" fill="#F3CA07"></path>
      <path d="M327.175 289.868L320.16 285.836L313.163 289.868V297.947L320.16 301.995L327.175 297.947V289.868Z" fill="#F3CA07"></path>
      <path d="M344.083 289.868L337.086 285.836L330.088 289.868V297.947L337.086 301.995L344.083 297.947V289.868Z" fill="#F3CA07"></path>
      <path d="M354.014 285.836L347.016 289.868V297.947L354.014 301.995L361.011 297.947V289.868L354.014 285.836Z" fill="#F3CA07"></path>
      <path d="M270.855 303.704V311.783L277.87 315.831L284.867 311.783V303.704L277.87 299.656L270.855 303.704Z" fill="#F3CA07"></path>
      <path d="M287.782 303.704V311.783L294.779 315.831L301.794 311.783V303.704L294.779 299.656L287.782 303.704Z" fill="#F3CA07"></path>
      <path d="M304.708 303.704V311.783L311.706 315.831L318.704 311.783V303.704L311.706 299.656L304.708 303.704Z" fill="#F3CA07"></path>
      <path d="M321.634 303.704V311.783L328.632 315.831L335.629 311.783V303.704L328.632 299.656L321.634 303.704Z" fill="#F3CA07"></path>
      <path d="M338.544 303.704V311.783L345.542 315.831L352.556 311.783V303.704L345.542 299.656L338.544 303.704Z" fill="#F3CA07"></path>
      <path d="M864.395 120.646L857.398 116.598L850.4 120.646V128.725L857.398 132.773L864.395 128.725V120.646Z" fill="#F3CA07"></path>
      <path d="M881.322 120.646L874.324 116.598L867.31 120.646V128.725L874.324 132.773L881.322 128.725V120.646Z" fill="#F3CA07"></path>
      <path d="M898.248 120.646L891.233 116.598L884.235 120.646V128.725L891.233 132.773L898.248 128.725V120.646Z" fill="#F3CA07"></path>
      <path d="M915.158 120.646L908.16 116.598L901.162 120.646V128.725L908.16 132.773L915.158 128.725V120.646Z" fill="#F3CA07"></path>
      <path d="M932.084 120.646L925.086 116.598L918.089 120.646V128.725L925.086 132.773L932.084 128.725V120.646Z" fill="#F3CA07"></path>
      <path d="M942.012 116.598L934.998 120.646V128.725L942.012 132.773L949.01 128.725V120.646L942.012 116.598Z" fill="#F3CA07"></path>
      <path d="M858.855 134.483V142.562L865.853 146.593L872.85 142.562V134.483L865.853 130.435L858.855 134.483Z" fill="#F3CA07"></path>
      <path d="M875.781 134.483V142.562L882.779 146.593L889.776 142.562V134.483L882.779 130.435L875.781 134.483Z" fill="#F3CA07"></path>
      <path d="M892.707 134.483V142.562L899.705 146.593L906.702 142.562V134.483L899.705 130.435L892.707 134.483Z" fill="#F3CA07"></path>
      <path d="M909.616 134.483V142.562L916.631 146.593L923.629 142.562V134.483L916.631 130.435L909.616 134.483Z" fill="#F3CA07"></path>
      <path d="M926.543 134.483V142.562L933.541 146.593L940.555 142.562V134.483L933.541 130.435L926.543 134.483Z" fill="#F3CA07"></path>
      <path d="M787.98 156.925H760.702L747.045 180.638L760.702 204.248H787.98L801.62 180.536L787.98 156.925ZM780.237 190.8H768.377L762.464 180.638L768.377 170.475H780.237L786.134 180.638L780.237 190.8Z" fill="#3D3D3D"></path>
      <path d="M119.416 281.517H92.2225L78.6678 305.144L92.2225 328.755H119.416L133.056 305.144L119.416 281.517ZM111.673 315.391H99.8131L93.9168 305.229L99.8131 295.067H111.673L117.57 305.229L111.673 315.391Z" fill="#3D3D3D"></path>
      <path d="M383.325 49.8643H356.046L342.39 73.5766L356.046 97.289H383.325L396.964 73.492L383.325 49.8643ZM375.582 83.7391H363.722L357.809 73.5766L363.722 63.4142H375.582L381.478 73.5766L375.582 83.7391Z" fill="#1D1D1D"></path>
      <path d="M1307.94 271.303H1280.66L1267.1 294.931L1280.66 318.542H1307.94L1321.59 294.931L1307.94 271.303ZM1300.19 305.178H1288.33L1282.44 295.016L1288.33 284.853H1300.19L1306.11 295.016L1300.19 305.178Z" fill="#1D1D1D"></path>
      <path d="M1004.02 455.565C1004.02 453.491 1003.41 451.463 1002.26 449.738C1001.1 448.014 999.463 446.67 997.546 445.877C995.629 445.084 993.519 444.877 991.484 445.283C989.449 445.689 987.58 446.689 986.114 448.157C984.648 449.625 983.651 451.495 983.248 453.53C982.845 455.565 983.055 457.673 983.852 459.589C984.648 461.504 985.995 463.14 987.722 464.29C989.449 465.44 991.478 466.052 993.553 466.049C994.93 466.049 996.293 465.778 997.564 465.251C998.836 464.724 999.991 463.951 1000.96 462.977C1001.94 462.004 1002.71 460.848 1003.23 459.576C1003.76 458.304 1004.03 456.941 1004.02 455.565Z" stroke="#1D1D1D" stroke-linecap="round" stroke-linejoin="round"></path>
      <path d="M790.066 114.209C790.076 112.134 789.469 110.102 788.323 108.371C787.176 106.64 785.542 105.288 783.627 104.487C781.711 103.686 779.601 103.471 777.563 103.87C775.525 104.268 773.652 105.263 772.18 106.727C770.708 108.191 769.704 110.059 769.295 112.094C768.886 114.13 769.091 116.24 769.883 118.159C770.676 120.078 772.02 121.718 773.746 122.872C775.471 124.027 777.501 124.643 779.578 124.643C782.35 124.643 785.01 123.545 786.976 121.59C788.941 119.635 790.052 116.981 790.066 114.209V114.209Z" stroke="#1D1D1D" stroke-linecap="round" stroke-linejoin="round"></path>
      <path d="M686.321 305.399C686.321 303.325 685.706 301.297 684.552 299.573C683.399 297.848 681.76 296.505 679.843 295.711C677.925 294.918 675.816 294.712 673.781 295.118C671.746 295.524 669.877 296.524 668.411 297.992C666.945 299.46 665.947 301.329 665.545 303.364C665.142 305.399 665.352 307.508 666.149 309.423C666.945 311.339 668.292 312.975 670.019 314.125C671.746 315.275 673.775 315.887 675.85 315.884C677.227 315.884 678.59 315.612 679.861 315.085C681.133 314.558 682.288 313.786 683.26 312.812C684.233 311.838 685.004 310.682 685.529 309.41C686.054 308.138 686.323 306.775 686.321 305.399V305.399Z" stroke="#1D1D1D" stroke-linecap="round" stroke-linejoin="round"></path>
      <path d="M393.965 195.39C393.952 193.319 393.325 191.298 392.164 189.582C391.003 187.867 389.359 186.533 387.44 185.751C385.522 184.968 383.414 184.771 381.384 185.185C379.354 185.598 377.491 186.604 376.032 188.074C374.573 189.545 373.582 191.415 373.185 193.448C372.787 195.481 373.001 197.586 373.8 199.497C374.598 201.409 375.945 203.041 377.67 204.188C379.396 205.335 381.422 205.945 383.495 205.942C384.877 205.942 386.245 205.669 387.521 205.137C388.797 204.606 389.955 203.827 390.929 202.846C391.902 201.865 392.672 200.702 393.193 199.422C393.714 198.142 393.977 196.772 393.965 195.39V195.39Z" stroke="#1D1D1D" stroke-linecap="round" stroke-linejoin="round"></path>
      <path d="M295.068 342.95C295.071 340.875 294.458 338.846 293.307 337.119C292.156 335.393 290.518 334.046 288.601 333.251C286.684 332.455 284.574 332.246 282.538 332.65C280.502 333.054 278.631 334.053 277.164 335.52C275.696 336.987 274.697 338.857 274.292 340.892C273.888 342.928 274.097 345.037 274.893 346.953C275.689 348.87 277.036 350.507 278.763 351.658C280.491 352.809 282.521 353.421 284.597 353.418C287.372 353.413 290.033 352.309 291.996 350.347C293.958 348.385 295.063 345.725 295.068 342.95V342.95Z" stroke="#1D1D1D" stroke-linecap="round" stroke-linejoin="round"></path>
      <path d="M457.384 509.935C457.38 508.901 457.07 507.89 456.493 507.032C455.916 506.174 455.097 505.505 454.14 505.112C453.183 504.718 452.131 504.617 451.116 504.821C450.102 505.025 449.171 505.525 448.44 506.257C447.71 506.99 447.213 507.922 447.012 508.937C446.811 509.952 446.916 511.003 447.313 511.959C447.709 512.914 448.381 513.73 449.241 514.305C450.102 514.879 451.113 515.186 452.148 515.186C452.837 515.186 453.519 515.05 454.155 514.786C454.792 514.522 455.37 514.134 455.856 513.647C456.342 513.159 456.728 512.58 456.99 511.943C457.252 511.306 457.386 510.624 457.384 509.935Z" fill="#F3CA07"></path>
      <path d="M300.302 411.036C303.193 411.036 305.537 408.693 305.537 405.803C305.537 402.912 303.193 400.569 300.302 400.569C297.41 400.569 295.066 402.912 295.066 405.803C295.066 408.693 297.41 411.036 300.302 411.036Z" fill="#F3CA07"></path>
      <path d="M155.624 145.629C158.515 145.629 160.859 143.286 160.859 140.395C160.859 137.505 158.515 135.162 155.624 135.162C152.732 135.162 150.388 137.505 150.388 140.395C150.388 143.286 152.732 145.629 155.624 145.629Z" fill="#F3CA07"></path>
      <path d="M728.697 180.535C728.697 179.5 728.39 178.488 727.814 177.627C727.239 176.767 726.421 176.096 725.465 175.7C724.508 175.304 723.455 175.2 722.44 175.402C721.424 175.604 720.491 176.102 719.759 176.834C719.027 177.566 718.528 178.499 718.326 179.514C718.124 180.529 718.228 181.581 718.624 182.538C719.02 183.494 719.692 184.311 720.553 184.887C721.413 185.462 722.426 185.769 723.461 185.769C724.85 185.769 726.181 185.217 727.163 184.236C728.145 183.254 728.697 181.923 728.697 180.535Z" fill="#F3CA07"></path>
      <path d="M723.461 332.464C723.464 331.424 723.159 330.407 722.583 329.541C722.007 328.675 721.187 327.999 720.227 327.6C719.266 327.2 718.209 327.095 717.188 327.297C716.168 327.499 715.23 327.999 714.495 328.735C713.759 329.47 713.259 330.407 713.056 331.427C712.854 332.447 712.96 333.504 713.359 334.465C713.759 335.425 714.435 336.244 715.301 336.82C716.168 337.396 717.185 337.701 718.226 337.698C719.614 337.698 720.946 337.147 721.928 336.165C722.91 335.184 723.461 333.852 723.461 332.464Z" fill="#F3CA07"></path>
      <path d="M1009.84 510.579C1012.73 510.579 1015.07 508.235 1015.07 505.345C1015.07 502.455 1012.73 500.111 1009.84 500.111C1006.94 500.111 1004.6 502.455 1004.6 505.345C1004.6 508.235 1006.94 510.579 1009.84 510.579Z" fill="#F3CA07"></path>
      <path d="M445.134 296.304C448.026 296.304 450.37 293.961 450.37 291.07C450.37 288.18 448.026 285.836 445.134 285.836C442.243 285.836 439.899 288.18 439.899 291.07C439.899 293.961 442.243 296.304 445.134 296.304Z" fill="#F3CA07"></path>
      <path d="M1161.24 356.042C1161.24 353.968 1160.63 351.939 1159.48 350.213C1158.33 348.487 1156.69 347.14 1154.78 346.344C1152.86 345.548 1150.75 345.338 1148.72 345.74C1146.68 346.143 1144.81 347.14 1143.34 348.606C1141.87 350.071 1140.87 351.939 1140.47 353.974C1140.06 356.008 1140.27 358.117 1141.06 360.034C1141.85 361.95 1143.2 363.589 1144.92 364.741C1146.65 365.894 1148.68 366.51 1150.75 366.51C1153.53 366.51 1156.2 365.407 1158.16 363.445C1160.13 361.482 1161.24 358.82 1161.24 356.042V356.042Z" stroke="#1D1D1D" stroke-linecap="round" stroke-linejoin="round"></path>
    </g>
    <g opacity="0.3">
      <path d="M1248.61 322.654L1255.19 311.262L1261.77 322.654H1248.61Z" fill="#F3CA07"></path>
      <path d="M1248.61 306.192L1255.19 294.808L1261.77 306.192H1248.61Z" fill="#F3CA07"></path>
      <path d="M1248.61 289.738L1255.19 278.346L1261.77 289.738H1248.61Z" fill="#F3CA07"></path>
      <path d="M1248.61 273.283L1255.19 261.892L1261.77 273.283H1248.61Z" fill="#F3CA07"></path>
      <path d="M1248.61 256.823L1255.19 245.438L1261.77 256.823H1248.61Z" fill="#F3CA07"></path>
      <path d="M1273.84 297.435L1280.42 286.043L1287 297.435H1273.84Z" fill="#F3CA07"></path>
      <path d="M1273.84 280.973L1280.42 269.589L1287 280.973H1273.84Z" fill="#F3CA07"></path>
      <path d="M1273.84 264.519L1280.42 253.127L1287 264.519H1273.84Z" fill="#F3CA07"></path>
      <path d="M1273.84 248.065L1280.42 236.673L1287 248.065H1273.84Z" fill="#F3CA07"></path>
      <path d="M1273.84 231.603L1280.42 220.219L1287 231.603H1273.84Z" fill="#F3CA07"></path>
      <path d="M1299.07 272.216L1305.65 260.824L1312.23 272.216H1299.07Z" fill="#F3CA07"></path>
      <path d="M1299.07 255.754L1305.65 244.37L1312.23 255.754H1299.07Z" fill="#F3CA07"></path>
      <path d="M1299.07 239.3L1305.65 227.908L1312.23 239.3H1299.07Z" fill="#F3CA07"></path>
      <path d="M1299.07 222.846L1305.65 211.454L1312.23 222.846H1299.07Z" fill="#F3CA07"></path>
      <path d="M1299.07 206.384L1305.65 195L1312.23 206.384H1299.07Z" fill="#F3CA07"></path>
      <path d="M91.0001 520.654L97.5793 509.262L104.159 520.654H91.0001Z" fill="#F3CA07"></path>
      <path d="M91.0001 504.193L97.5793 492.809L104.159 504.193H91.0001Z" fill="#F3CA07"></path>
      <path d="M91 487.739L97.5793 476.347L104.159 487.739H91Z" fill="#F3CA07"></path>
      <path d="M91.0001 471.284L97.5793 459.892L104.159 471.284H91.0001Z" fill="#F3CA07"></path>
      <path d="M91.0001 454.823L97.5793 443.438L104.159 454.823H91.0001Z" fill="#F3CA07"></path>
      <path d="M116.228 495.435L122.807 484.043L129.386 495.435H116.228Z" fill="#F3CA07"></path>
      <path d="M116.228 478.974L122.807 467.589L129.386 478.974H116.228Z" fill="#F3CA07"></path>
      <path d="M116.228 462.519L122.807 451.127L129.386 462.519H116.228Z" fill="#F3CA07"></path>
      <path d="M116.228 446.065L122.807 434.673L129.386 446.065H116.228Z" fill="#F3CA07"></path>
      <path d="M116.228 429.603L122.807 418.219L129.386 429.603H116.228Z" fill="#F3CA07"></path>
      <path d="M141.456 470.216L148.035 458.824L154.614 470.216H141.456Z" fill="#F3CA07"></path>
      <path d="M141.456 453.754L148.035 442.37L154.614 453.754H141.456Z" fill="#F3CA07"></path>
      <path d="M141.456 437.3L148.035 425.908L154.614 437.3H141.456Z" fill="#F3CA07"></path>
      <path d="M141.456 420.846L148.035 409.454L154.614 420.846H141.456Z" fill="#F3CA07"></path>
      <path d="M141.456 404.384L148.035 393L154.614 404.384H141.456Z" fill="#F3CA07"></path>
    </g>
  </g>
  <defs>
    <clipPath id="clip0_93_2005">
      <rect width="1440" height="536" fill="white"></rect>
    </clipPath>
  </defs>
</svg>
