<svg xmlns="http://www.w3.org/2000/svg" xmlns:xlink="http://www.w3.org/1999/xlink" width="382" zoomAndPan="magnify" viewBox="0 0 286.5 80.999996" height="108" preserveAspectRatio="xMidYMid meet" version="1.0"><defs><clipPath id="id1"><path d="M 43 44 L 79 44 L 79 80.929688 L 43 80.929688 Z M 43 44 " clip-rule="nonzero"/></clipPath><clipPath id="id2"><path d="M 0 44 L 36 44 L 36 80.929688 L 0 80.929688 Z M 0 44 " clip-rule="nonzero"/></clipPath><clipPath id="id3"><path d="M 196 0.0703125 L 225 0.0703125 L 225 63 L 196 63 Z M 196 0.0703125 " clip-rule="nonzero"/></clipPath></defs><path fill="#ffffff" d="M 130.164062 63.519531 C 120.503906 63.519531 113.113281 58.824219 112.597656 50.53125 C 112.589844 50.410156 112.609375 50.292969 112.648438 50.179688 C 112.691406 50.066406 112.753906 49.964844 112.835938 49.878906 C 112.917969 49.789062 113.015625 49.71875 113.128906 49.671875 C 113.238281 49.625 113.355469 49.601562 113.476562 49.601562 L 120.226562 49.601562 C 120.441406 49.597656 120.652344 49.679688 120.816406 49.828125 C 120.976562 49.976562 121.078125 50.179688 121.09375 50.394531 C 121.5 54.820312 125.25 57.070312 130.164062 57.070312 C 135.074219 57.070312 138.058594 55.203125 138.058594 51.535156 C 138.058594 41.679688 113.386719 49.503906 113.386719 33.128906 C 113.386719 25.71875 120.136719 21.128906 128.941406 21.128906 C 138.058594 21.128906 145.019531 26.433594 145.597656 33.460938 C 145.605469 33.582031 145.589844 33.699219 145.546875 33.8125 C 145.507812 33.925781 145.445312 34.03125 145.363281 34.121094 C 145.285156 34.210938 145.183594 34.28125 145.074219 34.332031 C 144.960938 34.378906 144.839844 34.40625 144.71875 34.40625 L 137.96875 34.40625 C 137.757812 34.40625 137.554688 34.332031 137.394531 34.191406 C 137.234375 34.054688 137.128906 33.863281 137.101562 33.65625 C 136.671875 30.144531 133.351562 27.65625 128.925781 27.65625 C 124.5 27.65625 121.597656 29.53125 121.597656 32.785156 C 121.597656 41.785156 146.429688 34.578125 146.429688 51.191406 C 146.445312 58.878906 139.605469 63.519531 130.164062 63.519531 Z M 130.164062 63.519531 " fill-opacity="1" fill-rule="nonzero"/><path fill="#ffffff" d="M 151.417969 41.492188 C 151.417969 38.824219 151.941406 36.179688 152.964844 33.714844 C 153.984375 31.246094 155.484375 29.003906 157.371094 27.117188 C 159.261719 25.230469 161.503906 23.734375 163.96875 22.714844 C 166.4375 21.695312 169.078125 21.171875 171.75 21.175781 C 177.289062 21.179688 182.597656 23.386719 186.511719 27.304688 C 190.425781 31.222656 192.621094 36.53125 192.621094 42.070312 L 192.621094 43.210938 C 192.621094 45.878906 192.097656 48.519531 191.074219 50.984375 C 190.054688 53.449219 188.558594 55.6875 186.671875 57.574219 C 184.785156 59.460938 182.542969 60.957031 180.078125 61.976562 C 177.613281 62.996094 174.972656 63.519531 172.304688 63.519531 C 166.765625 63.519531 161.453125 61.320312 157.535156 57.402344 C 153.617188 53.484375 151.417969 48.171875 151.417969 42.632812 Z M 184.5 42.347656 C 184.5 34.097656 179.121094 28.667969 172.042969 28.667969 C 164.960938 28.667969 159.578125 34.128906 159.578125 42.347656 C 159.578125 50.566406 164.953125 56.027344 172.042969 56.027344 C 179.128906 56.027344 184.5 50.574219 184.5 42.347656 Z M 184.5 42.347656 " fill-opacity="1" fill-rule="nonzero"/><path fill="#ffffff" d="M 269.175781 62.710938 L 261.90625 62.710938 C 261.789062 62.714844 261.671875 62.691406 261.5625 62.648438 C 261.453125 62.609375 261.355469 62.542969 261.269531 62.460938 C 261.183594 62.378906 261.117188 62.28125 261.070312 62.175781 C 261.027344 62.066406 261 61.949219 261 61.832031 L 261 22.871094 C 261 22.636719 261.09375 22.414062 261.257812 22.25 C 261.421875 22.085938 261.644531 21.992188 261.878906 21.992188 L 268.265625 21.992188 C 268.5 21.992188 268.722656 22.085938 268.886719 22.25 C 269.050781 22.414062 269.144531 22.636719 269.144531 22.871094 L 269.144531 29.320312 C 270.515625 26.84375 272.53125 24.78125 274.976562 23.347656 C 277.417969 21.917969 280.203125 21.167969 283.035156 21.183594 C 283.714844 21.175781 284.394531 21.214844 285.066406 21.296875 C 285.277344 21.324219 285.46875 21.429688 285.605469 21.589844 C 285.746094 21.75 285.820312 21.953125 285.816406 22.164062 L 285.816406 29.140625 C 285.816406 29.273438 285.789062 29.402344 285.730469 29.523438 C 285.675781 29.644531 285.589844 29.746094 285.488281 29.832031 C 285.382812 29.914062 285.261719 29.96875 285.132812 30 C 285 30.027344 284.867188 30.027344 284.738281 29.996094 C 283.671875 29.761719 282.582031 29.648438 281.488281 29.652344 C 278.207031 29.652344 275.058594 30.953125 272.738281 33.273438 C 270.417969 35.597656 269.113281 38.742188 269.113281 42.027344 L 269.113281 62.710938 Z M 269.175781 62.710938 " fill-opacity="1" fill-rule="nonzero"/><path fill="#ffffff" d="M 70.875 1.578125 L 7.875 1.578125 C 3.527344 1.578125 0 5.105469 0 9.453125 L 0 29.140625 C 0 33.488281 3.527344 37.015625 7.875 37.015625 L 70.875 37.015625 C 75.222656 37.015625 78.75 33.488281 78.75 29.140625 L 78.75 9.453125 C 78.75 5.105469 75.222656 1.578125 70.875 1.578125 Z M 70.875 1.578125 " fill-opacity="1" fill-rule="nonzero"/><g clip-path="url(#id1)"><path fill="#ffffff" d="M 70.875 44.890625 L 51.1875 44.890625 C 46.839844 44.890625 43.3125 48.417969 43.3125 52.765625 L 43.3125 72.453125 C 43.3125 76.800781 46.839844 80.328125 51.1875 80.328125 L 70.875 80.328125 C 75.222656 80.328125 78.75 76.800781 78.75 72.453125 L 78.75 52.765625 C 78.75 48.417969 75.222656 44.890625 70.875 44.890625 Z M 70.875 44.890625 " fill-opacity="1" fill-rule="nonzero"/></g><g clip-path="url(#id2)"><path fill="#ffffff" d="M 17.714844 80.328125 C 27.5 80.328125 35.429688 72.398438 35.429688 62.613281 C 35.429688 52.828125 27.5 44.898438 17.714844 44.898438 C 7.929688 44.898438 0 52.828125 0 62.613281 C 0 72.398438 7.929688 80.328125 17.714844 80.328125 Z M 17.714844 80.328125 " fill-opacity="1" fill-rule="nonzero"/></g><g clip-path="url(#id3)"><path fill="#ffffff" d="M 218.144531 23.042969 C 218.144531 22.765625 218.035156 22.496094 217.835938 22.300781 C 217.640625 22.105469 217.375 21.992188 217.09375 21.992188 L 211.589844 21.992188 L 211.589844 15.886719 C 211.59375 13.878906 212.390625 11.957031 213.8125 10.535156 C 215.230469 9.117188 217.15625 8.320312 219.164062 8.320312 C 220.472656 8.3125 221.777344 8.457031 223.050781 8.746094 C 223.179688 8.777344 223.3125 8.777344 223.445312 8.75 C 223.574219 8.722656 223.695312 8.664062 223.800781 8.582031 C 223.902344 8.5 223.988281 8.394531 224.042969 8.277344 C 224.101562 8.15625 224.128906 8.023438 224.128906 7.894531 L 224.128906 2.230469 C 224.128906 2.03125 224.0625 1.839844 223.941406 1.683594 C 223.820312 1.53125 223.648438 1.421875 223.453125 1.375 C 221.863281 1.027344 220.238281 0.84375 218.609375 0.820312 C 216.628906 0.789062 214.664062 1.148438 212.828125 1.882812 C 210.988281 2.617188 209.316406 3.710938 207.902344 5.097656 C 206.492188 6.484375 205.371094 8.140625 204.605469 9.964844 C 203.839844 11.792969 203.445312 13.75 203.445312 15.730469 L 203.445312 21.992188 L 197.324219 21.992188 C 197.09375 21.992188 196.867188 22.085938 196.703125 22.25 C 196.539062 22.414062 196.449219 22.636719 196.449219 22.871094 L 196.449219 28.285156 C 196.449219 28.398438 196.46875 28.515625 196.515625 28.621094 C 196.558594 28.726562 196.621094 28.824219 196.703125 28.902344 C 196.785156 28.984375 196.882812 29.046875 196.988281 29.089844 C 197.097656 29.132812 197.210938 29.15625 197.324219 29.15625 L 203.445312 29.15625 L 203.445312 61.832031 C 203.445312 62.066406 203.539062 62.285156 203.703125 62.453125 C 203.867188 62.617188 204.089844 62.707031 204.324219 62.710938 L 210.75 62.710938 C 210.984375 62.710938 211.207031 62.617188 211.371094 62.453125 C 211.535156 62.289062 211.628906 62.066406 211.628906 61.832031 L 211.628906 29.15625 L 217.132812 29.15625 C 217.410156 29.15625 217.675781 29.042969 217.875 28.847656 C 218.070312 28.652344 218.183594 28.382812 218.183594 28.105469 Z M 218.144531 23.042969 " fill-opacity="1" fill-rule="nonzero"/></g><path fill="#ffffff" d="M 254.933594 21.992188 L 244.078125 21.992188 L 244.078125 11.492188 C 244.085938 11.375 244.066406 11.253906 244.027344 11.144531 C 243.984375 11.03125 243.921875 10.929688 243.839844 10.84375 C 243.757812 10.757812 243.660156 10.6875 243.550781 10.640625 C 243.441406 10.59375 243.320312 10.570312 243.203125 10.570312 L 236.8125 10.570312 C 236.578125 10.570312 236.355469 10.664062 236.191406 10.828125 C 236.027344 10.992188 235.933594 11.214844 235.933594 11.449219 L 235.933594 21.949219 L 225.496094 21.949219 C 225.214844 21.949219 224.949219 22.058594 224.753906 22.253906 C 224.554688 22.453125 224.445312 22.71875 224.445312 22.996094 L 224.445312 28.058594 C 224.445312 28.199219 224.46875 28.335938 224.523438 28.464844 C 224.574219 28.589844 224.652344 28.707031 224.75 28.804688 C 224.847656 28.902344 224.964844 28.980469 225.09375 29.03125 C 225.21875 29.085938 225.355469 29.113281 225.496094 29.109375 L 235.933594 29.109375 L 235.933594 61.832031 C 235.933594 62.066406 236.027344 62.289062 236.191406 62.453125 C 236.355469 62.617188 236.578125 62.710938 236.8125 62.710938 L 243.203125 62.710938 C 243.433594 62.710938 243.660156 62.617188 243.824219 62.453125 C 243.988281 62.289062 244.078125 62.066406 244.078125 61.832031 L 244.078125 29.15625 L 254.933594 29.15625 C 255.164062 29.15625 255.382812 29.0625 255.546875 28.902344 C 255.710938 28.738281 255.800781 28.515625 255.800781 28.285156 L 255.800781 22.871094 C 255.804688 22.753906 255.78125 22.640625 255.738281 22.535156 C 255.695312 22.429688 255.632812 22.332031 255.550781 22.25 C 255.46875 22.167969 255.375 22.105469 255.265625 22.058594 C 255.160156 22.015625 255.046875 21.992188 254.933594 21.992188 Z M 254.933594 21.992188 " fill-opacity="1" fill-rule="nonzero"/></svg>